# Tiled2Unity generated file. Do not modify by hand.
# Wavefront file for 'world1_mesh_0002.obj'

# Vertices (Count = 716)
v -25 -1 0
v -26 -1 0
v -26 0 0
v -25 0 0
v -24 -1 0
v -25 -1 0
v -25 0 0
v -24 0 0
v -23 -1 0
v -24 -1 0
v -24 0 0
v -23 0 0
v -22 -1 0
v -23 -1 0
v -23 0 0
v -22 0 0
v -21 -1 0
v -22 -1 0
v -22 0 0
v -21 0 0
v -20 -1 0
v -21 -1 0
v -21 0 0
v -20 0 0
v -19 -1 0
v -20 -1 0
v -20 0 0
v -19 0 0
v -18 -1 0
v -19 -1 0
v -19 0 0
v -18 0 0
v -17 -1 0
v -18 -1 0
v -18 0 0
v -17 0 0
v -16 -1 0
v -17 -1 0
v -17 0 0
v -16 0 0
v -15 -1 0
v -16 -1 0
v -16 0 0
v -15 0 0
v -14 -1 0
v -15 -1 0
v -15 0 0
v -14 0 0
v -13 -1 0
v -14 -1 0
v -14 0 0
v -13 0 0
v -12 -1 0
v -13 -1 0
v -13 0 0
v -12 0 0
v -11 -1 0
v -12 -1 0
v -12 0 0
v -11 0 0
v -10 -1 0
v -11 -1 0
v -11 0 0
v -10 0 0
v -9 -1 0
v -10 -1 0
v -10 0 0
v -9 0 0
v -3 -1 0
v -4 -1 0
v -4 0 0
v -3 0 0
v -2 -1 0
v -3 -1 0
v -3 0 0
v -2 0 0
v -1 -1 0
v -2 -1 0
v -2 0 0
v -1 0 0
v 0 -1 0
v -1 -1 0
v -1 0 0
v 0 0 0
v -25 -2 0
v -26 -2 0
v -26 -1 0
v -25 -1 0
v -20 -2 0
v -21 -2 0
v -21 -1 0
v -20 -1 0
v -19 -2 0
v -20 -2 0
v -20 -1 0
v -19 -1 0
v -18 -2 0
v -19 -2 0
v -19 -1 0
v -18 -1 0
v -17 -2 0
v -18 -2 0
v -18 -1 0
v -17 -1 0
v -16 -2 0
v -17 -2 0
v -17 -1 0
v -16 -1 0
v -15 -2 0
v -16 -2 0
v -16 -1 0
v -15 -1 0
v 0 -2 0
v -1 -2 0
v -1 -1 0
v 0 -1 0
v -25 -3 0
v -26 -3 0
v -26 -2 0
v -25 -2 0
v -22 -3 0
v -23 -3 0
v -23 -2 0
v -22 -2 0
v -21 -3 0
v -22 -3 0
v -22 -2 0
v -21 -2 0
v -20 -3 0
v -21 -3 0
v -21 -2 0
v -20 -2 0
v -19 -3 0
v -20 -3 0
v -20 -2 0
v -19 -2 0
v -18 -3 0
v -19 -3 0
v -19 -2 0
v -18 -2 0
v -17 -3 0
v -18 -3 0
v -18 -2 0
v -17 -2 0
v -16 -3 0
v -17 -3 0
v -17 -2 0
v -16 -2 0
v -15 -3 0
v -16 -3 0
v -16 -2 0
v -15 -2 0
v -14 -3 0
v -15 -3 0
v -15 -2 0
v -14 -2 0
v -13 -3 0
v -14 -3 0
v -14 -2 0
v -13 -2 0
v -12 -3 0
v -13 -3 0
v -13 -2 0
v -12 -2 0
v -11 -3 0
v -12 -3 0
v -12 -2 0
v -11 -2 0
v -10 -3 0
v -11 -3 0
v -11 -2 0
v -10 -2 0
v -9 -3 0
v -10 -3 0
v -10 -2 0
v -9 -2 0
v 0 -3 0
v -1 -3 0
v -1 -2 0
v 0 -2 0
v -25 -4 0
v -26 -4 0
v -26 -3 0
v -25 -3 0
v -23 -4 0
v -24 -4 0
v -24 -3 0
v -23 -3 0
v -22 -4 0
v -23 -4 0
v -23 -3 0
v -22 -3 0
v -21 -4 0
v -22 -4 0
v -22 -3 0
v -21 -3 0
v -20 -4 0
v -21 -4 0
v -21 -3 0
v -20 -3 0
v -19 -4 0
v -20 -4 0
v -20 -3 0
v -19 -3 0
v -18 -4 0
v -19 -4 0
v -19 -3 0
v -18 -3 0
v -17 -4 0
v -18 -4 0
v -18 -3 0
v -17 -3 0
v -16 -4 0
v -17 -4 0
v -17 -3 0
v -16 -3 0
v -15 -4 0
v -16 -4 0
v -16 -3 0
v -15 -3 0
v -14 -4 0
v -15 -4 0
v -15 -3 0
v -14 -3 0
v -13 -4 0
v -14 -4 0
v -14 -3 0
v -13 -3 0
v -12 -4 0
v -13 -4 0
v -13 -3 0
v -12 -3 0
v -11 -4 0
v -12 -4 0
v -12 -3 0
v -11 -3 0
v -10 -4 0
v -11 -4 0
v -11 -3 0
v -10 -3 0
v -9 -4 0
v -10 -4 0
v -10 -3 0
v -9 -3 0
v -8 -4 0
v -9 -4 0
v -9 -3 0
v -8 -3 0
v -3 -4 0
v -4 -4 0
v -4 -3 0
v -3 -3 0
v -2 -4 0
v -3 -4 0
v -3 -3 0
v -2 -3 0
v -1 -4 0
v -2 -4 0
v -2 -3 0
v -1 -3 0
v 0 -4 0
v -1 -4 0
v -1 -3 0
v 0 -3 0
v -25 -5 0
v -26 -5 0
v -26 -4 0
v -25 -4 0
v -23 -5 0
v -24 -5 0
v -24 -4 0
v -23 -4 0
v -22 -5 0
v -23 -5 0
v -23 -4 0
v -22 -4 0
v -21 -5 0
v -22 -5 0
v -22 -4 0
v -21 -4 0
v -20 -5 0
v -21 -5 0
v -21 -4 0
v -20 -4 0
v -19 -5 0
v -20 -5 0
v -20 -4 0
v -19 -4 0
v -18 -5 0
v -19 -5 0
v -19 -4 0
v -18 -4 0
v -17 -5 0
v -18 -5 0
v -18 -4 0
v -17 -4 0
v -16 -5 0
v -17 -5 0
v -17 -4 0
v -16 -4 0
v -15 -5 0
v -16 -5 0
v -16 -4 0
v -15 -4 0
v -14 -5 0
v -15 -5 0
v -15 -4 0
v -14 -4 0
v -13 -5 0
v -14 -5 0
v -14 -4 0
v -13 -4 0
v -12 -5 0
v -13 -5 0
v -13 -4 0
v -12 -4 0
v -11 -5 0
v -12 -5 0
v -12 -4 0
v -11 -4 0
v -10 -5 0
v -11 -5 0
v -11 -4 0
v -10 -4 0
v -9 -5 0
v -10 -5 0
v -10 -4 0
v -9 -4 0
v -8 -5 0
v -9 -5 0
v -9 -4 0
v -8 -4 0
v -3 -5 0
v -4 -5 0
v -4 -4 0
v -3 -4 0
v -2 -5 0
v -3 -5 0
v -3 -4 0
v -2 -4 0
v -1 -5 0
v -2 -5 0
v -2 -4 0
v -1 -4 0
v 0 -5 0
v -1 -5 0
v -1 -4 0
v 0 -4 0
v -25 -6 0
v -26 -6 0
v -26 -5 0
v -25 -5 0
v -23 -6 0
v -24 -6 0
v -24 -5 0
v -23 -5 0
v -22 -6 0
v -23 -6 0
v -23 -5 0
v -22 -5 0
v -21 -6 0
v -22 -6 0
v -22 -5 0
v -21 -5 0
v -20 -6 0
v -21 -6 0
v -21 -5 0
v -20 -5 0
v -19 -6 0
v -20 -6 0
v -20 -5 0
v -19 -5 0
v -18 -6 0
v -19 -6 0
v -19 -5 0
v -18 -5 0
v -17 -6 0
v -18 -6 0
v -18 -5 0
v -17 -5 0
v -16 -6 0
v -17 -6 0
v -17 -5 0
v -16 -5 0
v -15 -6 0
v -16 -6 0
v -16 -5 0
v -15 -5 0
v -14 -6 0
v -15 -6 0
v -15 -5 0
v -14 -5 0
v -13 -6 0
v -14 -6 0
v -14 -5 0
v -13 -5 0
v -12 -6 0
v -13 -6 0
v -13 -5 0
v -12 -5 0
v -11 -6 0
v -12 -6 0
v -12 -5 0
v -11 -5 0
v -10 -6 0
v -11 -6 0
v -11 -5 0
v -10 -5 0
v -9 -6 0
v -10 -6 0
v -10 -5 0
v -9 -5 0
v -8 -6 0
v -9 -6 0
v -9 -5 0
v -8 -5 0
v -3 -6 0
v -4 -6 0
v -4 -5 0
v -3 -5 0
v -2 -6 0
v -3 -6 0
v -3 -5 0
v -2 -5 0
v -1 -6 0
v -2 -6 0
v -2 -5 0
v -1 -5 0
v 0 -6 0
v -1 -6 0
v -1 -5 0
v 0 -5 0
v -25 -7 0
v -26 -7 0
v -26 -6 0
v -25 -6 0
v -23 -7 0
v -24 -7 0
v -24 -6 0
v -23 -6 0
v -22 -7 0
v -23 -7 0
v -23 -6 0
v -22 -6 0
v -21 -7 0
v -22 -7 0
v -22 -6 0
v -21 -6 0
v -20 -7 0
v -21 -7 0
v -21 -6 0
v -20 -6 0
v -19 -7 0
v -20 -7 0
v -20 -6 0
v -19 -6 0
v -18 -7 0
v -19 -7 0
v -19 -6 0
v -18 -6 0
v -17 -7 0
v -18 -7 0
v -18 -6 0
v -17 -6 0
v -16 -7 0
v -17 -7 0
v -17 -6 0
v -16 -6 0
v -15 -7 0
v -16 -7 0
v -16 -6 0
v -15 -6 0
v -14 -7 0
v -15 -7 0
v -15 -6 0
v -14 -6 0
v -13 -7 0
v -14 -7 0
v -14 -6 0
v -13 -6 0
v -12 -7 0
v -13 -7 0
v -13 -6 0
v -12 -6 0
v -11 -7 0
v -12 -7 0
v -12 -6 0
v -11 -6 0
v -10 -7 0
v -11 -7 0
v -11 -6 0
v -10 -6 0
v -9 -7 0
v -10 -7 0
v -10 -6 0
v -9 -6 0
v -8 -7 0
v -9 -7 0
v -9 -6 0
v -8 -6 0
v 0 -7 0
v -1 -7 0
v -1 -6 0
v 0 -6 0
v -25 -8 0
v -26 -8 0
v -26 -7 0
v -25 -7 0
v -20 -8 0
v -21 -8 0
v -21 -7 0
v -20 -7 0
v -19 -8 0
v -20 -8 0
v -20 -7 0
v -19 -7 0
v -18 -8 0
v -19 -8 0
v -19 -7 0
v -18 -7 0
v -17 -8 0
v -18 -8 0
v -18 -7 0
v -17 -7 0
v -16 -8 0
v -17 -8 0
v -17 -7 0
v -16 -7 0
v -15 -8 0
v -16 -8 0
v -16 -7 0
v -15 -7 0
v -14 -8 0
v -15 -8 0
v -15 -7 0
v -14 -7 0
v -13 -8 0
v -14 -8 0
v -14 -7 0
v -13 -7 0
v -12 -8 0
v -13 -8 0
v -13 -7 0
v -12 -7 0
v -11 -8 0
v -12 -8 0
v -12 -7 0
v -11 -7 0
v -10 -8 0
v -11 -8 0
v -11 -7 0
v -10 -7 0
v -9 -8 0
v -10 -8 0
v -10 -7 0
v -9 -7 0
v -8 -8 0
v -9 -8 0
v -9 -7 0
v -8 -7 0
v 0 -8 0
v -1 -8 0
v -1 -7 0
v 0 -7 0
v -15 -9 0
v -16 -9 0
v -16 -8 0
v -15 -8 0
v -14 -9 0
v -15 -9 0
v -15 -8 0
v -14 -8 0
v -13 -9 0
v -14 -9 0
v -14 -8 0
v -13 -8 0
v -12 -9 0
v -13 -9 0
v -13 -8 0
v -12 -8 0
v -11 -9 0
v -12 -9 0
v -12 -8 0
v -11 -8 0
v -10 -9 0
v -11 -9 0
v -11 -8 0
v -10 -8 0
v 0 -12 0
v -1 -12 0
v -1 -11 0
v 0 -11 0
v 0 -13 0
v -1 -13 0
v -1 -12 0
v 0 -12 0
v 0 -14 0
v -1 -14 0
v -1 -13 0
v 0 -13 0
v -18 -15 0
v -19 -15 0
v -19 -14 0
v -18 -14 0
v -17 -15 0
v -18 -15 0
v -18 -14 0
v -17 -14 0
v 0 -15 0
v -1 -15 0
v -1 -14 0
v 0 -14 0
v -25 -16 0
v -26 -16 0
v -26 -15 0
v -25 -15 0
v -18 -16 0
v -19 -16 0
v -19 -15 0
v -18 -15 0
v -17 -16 0
v -18 -16 0
v -18 -15 0
v -17 -15 0
v 0 -16 0
v -1 -16 0
v -1 -15 0
v 0 -15 0
v -25 -17 0
v -26 -17 0
v -26 -16 0
v -25 -16 0
v -24 -17 0
v -25 -17 0
v -25 -16 0
v -24 -16 0
v -23 -17 0
v -24 -17 0
v -24 -16 0
v -23 -16 0
v -22 -17 0
v -23 -17 0
v -23 -16 0
v -22 -16 0
v -21 -17 0
v -22 -17 0
v -22 -16 0
v -21 -16 0
v -20 -17 0
v -21 -17 0
v -21 -16 0
v -20 -16 0
v -19 -17 0
v -20 -17 0
v -20 -16 0
v -19 -16 0
v -18 -17 0
v -19 -17 0
v -19 -16 0
v -18 -16 0
v -17 -17 0
v -18 -17 0
v -18 -16 0
v -17 -16 0
v -16 -17 0
v -17 -17 0
v -17 -16 0
v -16 -16 0
v -15 -17 0
v -16 -17 0
v -16 -16 0
v -15 -16 0
v -14 -17 0
v -15 -17 0
v -15 -16 0
v -14 -16 0
v -9 -17 0
v -10 -17 0
v -10 -16 0
v -9 -16 0
v -8 -17 0
v -9 -17 0
v -9 -16 0
v -8 -16 0
v -7 -17 0
v -8 -17 0
v -8 -16 0
v -7 -16 0
v -6 -17 0
v -7 -17 0
v -7 -16 0
v -6 -16 0
v -5 -17 0
v -6 -17 0
v -6 -16 0
v -5 -16 0
v -4 -17 0
v -5 -17 0
v -5 -16 0
v -4 -16 0
v -3 -17 0
v -4 -17 0
v -4 -16 0
v -3 -16 0
v -2 -17 0
v -3 -17 0
v -3 -16 0
v -2 -16 0
v -1 -17 0
v -2 -17 0
v -2 -16 0
v -1 -16 0
v 0 -17 0
v -1 -17 0
v -1 -16 0
v 0 -16 0

# Texture cooridinates (Count = 73)
vt 0.175 0.5
vt 0.2 0.5
vt 0.2 0.5277778
vt 0.175 0.5277778
vt 0.125 0.4444444
vt 0.15 0.4444444
vt 0.15 0.4722222
vt 0.125 0.4722222
vt 0.125 0.5
vt 0.15 0.5
vt 0.15 0.5277778
vt 0.125 0.5277778
vt 0.2 0.5555556
vt 0.175 0.5555556
vt 0.175 0.4722222
vt 0.1 0.8055556
vt 0.125 0.8055556
vt 0.125 0.8333333
vt 0.1 0.8333333
vt 0.075 0.8055556
vt 0.075 0.8333333
vt 0.05 0.8055556
vt 0.05 0.8333333
vt 0.2 0.4722222
vt 0.05 0.6944444
vt 0.075 0.6944444
vt 0.075 0.7222222
vt 0.05 0.7222222
vt 0.475 0.9166667
vt 0.5 0.9166667
vt 0.5 0.9444444
vt 0.475 0.9444444
vt 0.45 0.9166667
vt 0.45 0.9444444
vt 0.075 0.7777778
vt 0.1 0.7777778
vt 0.1 0.6944444
vt 0.1 0.7222222
vt 0.475 0.8888889
vt 0.5 0.8888889
vt 0.45 0.8888889
vt 0.6 0.7222222
vt 0.625 0.7222222
vt 0.625 0.75
vt 0.6 0.75
vt 0.575 0.7222222
vt 0.575 0.75
vt 0.55 0.7222222
vt 0.55 0.75
vt 0.125 0.7777778
vt 0 0.9444444
vt 0.025 0.9444444
vt 0.025 0.9722222
vt 0 0.9722222
vt 0.05 0.7777778
vt 0.6 0.6944444
vt 0.625 0.6944444
vt 0.575 0.6944444
vt 0.55 0.6944444
vt 0.6 0.6666666
vt 0.625 0.6666666
vt 0.575 0.6666666
vt 0.55 0.6666666
vt 0.1 0.75
vt 0.125 0.75
vt 0.075 0.75
vt 0.05 0.75
vt 0.15 0.5555556
vt 0.125 0.5555556
vt 0.075 0.5277778
vt 0.1 0.5277778
vt 0.1 0.5555556
vt 0.075 0.5555556

# Normal
vn 0 0 -1

# Mesh description
g world1_mesh_0002

# Faces
f 1/1/1 2/2/1 3/3/1 4/4/1
f 5/5/1 6/6/1 7/7/1 8/8/1
f 9/5/1 10/6/1 11/7/1 12/8/1
f 13/5/1 14/6/1 15/7/1 16/8/1
f 17/5/1 18/6/1 19/7/1 20/8/1
f 21/5/1 22/6/1 23/7/1 24/8/1
f 25/5/1 26/6/1 27/7/1 28/8/1
f 29/5/1 30/6/1 31/7/1 32/8/1
f 33/5/1 34/6/1 35/7/1 36/8/1
f 37/5/1 38/6/1 39/7/1 40/8/1
f 41/5/1 42/6/1 43/7/1 44/8/1
f 45/5/1 46/6/1 47/7/1 48/8/1
f 49/5/1 50/6/1 51/7/1 52/8/1
f 53/5/1 54/6/1 55/7/1 56/8/1
f 57/5/1 58/6/1 59/7/1 60/8/1
f 61/5/1 62/6/1 63/7/1 64/8/1
f 65/9/1 66/10/1 67/11/1 68/12/1
f 69/10/1 70/1/1 71/4/1 72/11/1
f 73/5/1 74/6/1 75/7/1 76/8/1
f 77/5/1 78/6/1 79/7/1 80/8/1
f 81/4/1 82/3/1 83/13/1 84/14/1
f 85/7/1 86/15/1 87/1/1 88/10/1
f 89/16/1 90/17/1 91/18/1 92/19/1
f 93/20/1 94/16/1 95/19/1 96/21/1
f 97/20/1 98/16/1 99/19/1 100/21/1
f 101/20/1 102/16/1 103/19/1 104/21/1
f 105/20/1 106/16/1 107/19/1 108/21/1
f 109/22/1 110/20/1 111/21/1 112/23/1
f 113/15/1 114/24/1 115/2/1 116/1/1
f 117/7/1 118/15/1 119/1/1 120/10/1
f 121/16/1 122/17/1 123/18/1 124/19/1
f 125/20/1 126/16/1 127/19/1 128/21/1
f 129/25/1 130/26/1 131/27/1 132/28/1
f 133/29/1 134/30/1 135/31/1 136/32/1
f 137/33/1 138/29/1 139/32/1 140/34/1
f 141/35/1 142/36/1 143/16/1 144/20/1
f 145/35/1 146/36/1 147/16/1 148/20/1
f 149/26/1 150/37/1 151/38/1 152/27/1
f 153/20/1 154/16/1 155/19/1 156/21/1
f 157/20/1 158/16/1 159/19/1 160/21/1
f 161/20/1 162/16/1 163/19/1 164/21/1
f 165/20/1 166/16/1 167/19/1 168/21/1
f 169/20/1 170/16/1 171/19/1 172/21/1
f 173/22/1 174/20/1 175/21/1 176/23/1
f 177/15/1 178/24/1 179/2/1 180/1/1
f 181/7/1 182/15/1 183/1/1 184/10/1
f 185/16/1 186/17/1 187/18/1 188/19/1
f 189/25/1 190/26/1 191/27/1 192/28/1
f 193/35/1 194/36/1 195/16/1 196/20/1
f 197/35/1 198/36/1 199/16/1 200/20/1
f 201/39/1 202/40/1 203/30/1 204/29/1
f 205/41/1 206/39/1 207/29/1 208/33/1
f 209/35/1 210/36/1 211/16/1 212/20/1
f 213/35/1 214/36/1 215/16/1 216/20/1
f 217/35/1 218/36/1 219/16/1 220/20/1
f 221/35/1 222/36/1 223/16/1 224/20/1
f 225/35/1 226/36/1 227/16/1 228/20/1
f 229/35/1 230/36/1 231/16/1 232/20/1
f 233/35/1 234/36/1 235/16/1 236/20/1
f 237/35/1 238/36/1 239/16/1 240/20/1
f 241/26/1 242/37/1 243/38/1 244/27/1
f 245/22/1 246/20/1 247/21/1 248/23/1
f 249/42/1 250/43/1 251/44/1 252/45/1
f 253/46/1 254/42/1 255/45/1 256/47/1
f 257/48/1 258/46/1 259/47/1 260/49/1
f 261/15/1 262/24/1 263/2/1 264/1/1
f 265/7/1 266/15/1 267/1/1 268/10/1
f 269/36/1 270/50/1 271/17/1 272/16/1
f 273/35/1 274/36/1 275/16/1 276/20/1
f 277/35/1 278/36/1 279/16/1 280/20/1
f 281/35/1 282/36/1 283/16/1 284/20/1
f 285/35/1 286/36/1 287/16/1 288/20/1
f 289/35/1 290/36/1 291/16/1 292/20/1
f 293/51/1 294/52/1 295/53/1 296/54/1
f 297/35/1 298/36/1 299/16/1 300/20/1
f 301/35/1 302/36/1 303/16/1 304/20/1
f 305/35/1 306/36/1 307/16/1 308/20/1
f 309/51/1 310/52/1 311/53/1 312/54/1
f 313/35/1 314/36/1 315/16/1 316/20/1
f 317/35/1 318/36/1 319/16/1 320/20/1
f 321/35/1 322/36/1 323/16/1 324/20/1
f 325/35/1 326/36/1 327/16/1 328/20/1
f 329/55/1 330/35/1 331/20/1 332/22/1
f 333/56/1 334/57/1 335/43/1 336/42/1
f 337/58/1 338/56/1 339/42/1 340/46/1
f 341/59/1 342/58/1 343/46/1 344/48/1
f 345/15/1 346/24/1 347/2/1 348/1/1
f 349/7/1 350/15/1 351/1/1 352/10/1
f 353/36/1 354/50/1 355/17/1 356/16/1
f 357/35/1 358/36/1 359/16/1 360/20/1
f 361/35/1 362/36/1 363/16/1 364/20/1
f 365/35/1 366/36/1 367/16/1 368/20/1
f 369/35/1 370/36/1 371/16/1 372/20/1
f 373/35/1 374/36/1 375/16/1 376/20/1
f 377/35/1 378/36/1 379/16/1 380/20/1
f 381/35/1 382/36/1 383/16/1 384/20/1
f 385/51/1 386/52/1 387/53/1 388/54/1
f 389/35/1 390/36/1 391/16/1 392/20/1
f 393/35/1 394/36/1 395/16/1 396/20/1
f 397/35/1 398/36/1 399/16/1 400/20/1
f 401/51/1 402/52/1 403/53/1 404/54/1
f 405/35/1 406/36/1 407/16/1 408/20/1
f 409/35/1 410/36/1 411/16/1 412/20/1
f 413/55/1 414/35/1 415/20/1 416/22/1
f 417/60/1 418/61/1 419/57/1 420/56/1
f 421/62/1 422/60/1 423/56/1 424/58/1
f 425/63/1 426/62/1 427/58/1 428/59/1
f 429/15/1 430/24/1 431/2/1 432/1/1
f 433/7/1 434/15/1 435/1/1 436/10/1
f 437/64/1 438/65/1 439/50/1 440/36/1
f 441/66/1 442/64/1 443/36/1 444/35/1
f 445/66/1 446/64/1 447/36/1 448/35/1
f 449/28/1 450/27/1 451/66/1 452/67/1
f 453/35/1 454/36/1 455/16/1 456/20/1
f 457/35/1 458/36/1 459/16/1 460/20/1
f 461/35/1 462/36/1 463/16/1 464/20/1
f 465/35/1 466/36/1 467/16/1 468/20/1
f 469/35/1 470/36/1 471/16/1 472/20/1
f 473/35/1 474/36/1 475/16/1 476/20/1
f 477/35/1 478/36/1 479/16/1 480/20/1
f 481/35/1 482/36/1 483/16/1 484/20/1
f 485/35/1 486/36/1 487/16/1 488/20/1
f 489/35/1 490/36/1 491/16/1 492/20/1
f 493/35/1 494/36/1 495/16/1 496/20/1
f 497/55/1 498/35/1 499/20/1 500/22/1
f 501/15/1 502/24/1 503/2/1 504/1/1
f 505/9/1 506/10/1 507/11/1 508/12/1
f 509/64/1 510/65/1 511/50/1 512/36/1
f 513/66/1 514/64/1 515/36/1 516/35/1
f 517/66/1 518/64/1 519/36/1 520/35/1
f 521/66/1 522/64/1 523/36/1 524/35/1
f 525/66/1 526/64/1 527/36/1 528/35/1
f 529/28/1 530/27/1 531/66/1 532/67/1
f 533/35/1 534/36/1 535/16/1 536/20/1
f 537/35/1 538/36/1 539/16/1 540/20/1
f 541/35/1 542/36/1 543/16/1 544/20/1
f 545/35/1 546/36/1 547/16/1 548/20/1
f 549/27/1 550/38/1 551/64/1 552/66/1
f 553/66/1 554/64/1 555/36/1 556/35/1
f 557/67/1 558/66/1 559/35/1 560/55/1
f 561/10/1 562/1/1 563/4/1 564/11/1
f 565/64/1 566/65/1 567/50/1 568/36/1
f 569/66/1 570/64/1 571/36/1 572/35/1
f 573/66/1 574/64/1 575/36/1 576/35/1
f 577/66/1 578/64/1 579/36/1 580/35/1
f 581/66/1 582/64/1 583/36/1 584/35/1
f 585/67/1 586/66/1 587/35/1 588/55/1
f 589/11/1 590/4/1 591/14/1 592/68/1
f 593/15/1 594/24/1 595/2/1 596/1/1
f 597/15/1 598/24/1 599/2/1 600/1/1
f 601/11/1 602/4/1 603/14/1 604/68/1
f 605/12/1 606/11/1 607/68/1 608/69/1
f 609/15/1 610/24/1 611/2/1 612/1/1
f 613/12/1 614/11/1 615/68/1 616/69/1
f 617/10/1 618/1/1 619/4/1 620/11/1
f 621/9/1 622/10/1 623/11/1 624/12/1
f 625/15/1 626/24/1 627/2/1 628/1/1
f 629/70/1 630/71/1 631/72/1 632/73/1
f 633/8/1 634/7/1 635/10/1 636/9/1
f 637/8/1 638/7/1 639/10/1 640/9/1
f 641/8/1 642/7/1 643/10/1 644/9/1
f 645/8/1 646/7/1 647/10/1 648/9/1
f 649/8/1 650/7/1 651/10/1 652/9/1
f 653/8/1 654/7/1 655/10/1 656/9/1
f 657/8/1 658/7/1 659/10/1 660/9/1
f 661/8/1 662/7/1 663/10/1 664/9/1
f 665/8/1 666/7/1 667/10/1 668/9/1
f 669/8/1 670/7/1 671/10/1 672/9/1
f 673/12/1 674/11/1 675/68/1 676/69/1
f 677/11/1 678/4/1 679/14/1 680/68/1
f 681/8/1 682/7/1 683/10/1 684/9/1
f 685/8/1 686/7/1 687/10/1 688/9/1
f 689/8/1 690/7/1 691/10/1 692/9/1
f 693/8/1 694/7/1 695/10/1 696/9/1
f 697/8/1 698/7/1 699/10/1 700/9/1
f 701/8/1 702/7/1 703/10/1 704/9/1
f 705/8/1 706/7/1 707/10/1 708/9/1
f 709/8/1 710/7/1 711/10/1 712/9/1
f 713/71/1 714/12/1 715/69/1 716/72/1

